<?xml version="1.0" standalone="no"?>
<!DOCTYPE svg PUBLIC "-//W3C//DTD SVG 20010904//EN"
 "http://www.w3.org/TR/2001/REC-SVG-20010904/DTD/svg10.dtd">
<svg version="1.0" xmlns="http://www.w3.org/2000/svg"
 width="840.000000pt" height="840.000000pt" viewBox="0 0 840.000000 840.000000"
 preserveAspectRatio="xMidYMid meet">
<metadata>
Created by potrace 1.14, written by Peter Selinger 2001-2017
</metadata>
<g transform="translate(0.000000,840.000000) scale(0.100000,-0.100000)"
fill="#000000" stroke="none">
<path d="M0 4200 l0 -4200 4200 0 4200 0 0 4200 0 4200 -4200 0 -4200 0 0
-4200z m4260 2673 c76 -10 164 -58 218 -119 57 -64 86 -145 104 -294 22 -188
12 -261 -38 -281 -13 -4 -39 -36 -59 -70 -93 -160 -208 -269 -282 -269 -32 0
-29 -28 3 -32 15 -2 33 -12 41 -24 12 -18 11 -25 -11 -57 -27 -39 -28 -31 18
-190 14 -49 28 -127 32 -173 4 -47 10 -82 14 -77 5 4 22 35 40 68 18 33 38 67
46 76 8 8 14 19 14 23 0 9 62 114 102 173 15 23 28 45 28 50 0 5 5 14 11 20
12 12 15 11 169 -43 41 -14 100 -33 130 -41 120 -33 230 -162 251 -296 6 -34
14 -91 19 -127 5 -36 14 -99 20 -140 6 -41 17 -138 26 -214 8 -77 17 -143 20
-148 3 -4 9 -46 15 -94 12 -107 20 -157 26 -166 2 -5 110 -8 239 -8 l234 0 0
-54 c0 -121 -86 -268 -205 -352 -66 -47 -125 -66 -205 -68 l-55 -1 -3 88 -3
87 -1057 -2 -1057 -3 -3 -87 -3 -88 -45 0 c-107 0 -251 80 -328 181 -49 65
-86 164 -89 235 l-2 59 240 3 c144 1 243 6 249 12 6 6 14 39 18 73 4 34 11 94
16 132 6 39 17 135 26 214 9 80 18 152 21 161 8 24 24 138 35 248 18 183 120
320 266 358 31 8 71 21 88 28 45 19 189 66 203 66 7 0 29 -28 49 -62 83 -141
187 -324 195 -345 15 -41 27 -25 32 45 8 108 26 200 52 276 24 68 24 71 6 91
-29 32 -32 42 -21 69 6 16 17 26 29 26 14 0 19 5 15 15 -4 8 -14 15 -23 15
-69 0 -217 150 -279 282 -12 26 -31 52 -43 58 -24 14 -59 90 -59 131 0 16 9
47 20 69 11 22 20 59 20 83 0 97 60 244 128 315 21 22 58 50 83 63 45 23 172
50 199 42 8 -2 35 -7 60 -10z m770 -3873 l0 -970 123 -1 c183 -1 211 -7 256
-53 33 -34 59 -112 43 -128 -4 -4 -586 -7 -1293 -6 l-1284 3 2 44 c2 36 9 51
40 83 49 50 81 58 241 58 l132 0 0 970 0 970 870 0 870 0 0 -970z"/>
<path d="M3956 5175 c-24 -22 -26 -31 -26 -100 0 -63 4 -82 22 -108 20 -28 22
-44 27 -286 l6 -256 30 0 30 0 0 260 c0 255 0 261 23 289 18 23 22 41 22 98 0
64 -3 72 -29 99 -36 35 -69 37 -105 4z"/>
<path d="M4272 5175 c-31 -26 -32 -30 -32 -103 0 -62 4 -80 20 -97 18 -19 20
-41 26 -283 7 -262 7 -262 30 -268 47 -12 48 -8 41 264 l-7 255 25 29 c22 26
25 39 25 102 0 62 -3 75 -22 94 -38 35 -70 37 -106 7z"/>
<path d="M3554 3447 c-2 -7 -3 -69 -2 -138 3 -122 3 -124 27 -127 32 -5 66 5
85 24 12 12 16 37 16 112 0 53 -4 102 -8 108 -21 31 -108 47 -118 21z m81
-127 c0 -88 -1 -95 -20 -95 -18 0 -20 8 -23 84 -3 96 1 114 25 109 16 -3 18
-16 18 -98z"/>
<path d="M3725 3447 c-3 -7 -4 -69 -3 -138 l3 -124 50 0 c38 0 50 4 50 15 0
10 -13 17 -35 20 -32 5 -35 8 -35 40 0 32 3 35 33 38 39 4 38 25 -1 30 -19 2
-29 11 -33 27 -11 43 -1 60 36 65 22 3 35 10 35 20 0 20 -93 27 -100 7z"/>
<path d="M3870 3320 l0 -140 30 0 c71 0 104 48 79 117 -7 23 -7 37 1 52 6 12
8 36 5 55 -7 37 -36 56 -85 56 l-30 0 0 -140z m78 72 c4 -25 -15 -55 -29 -46
-5 3 -9 21 -9 40 0 28 4 35 18 32 9 -2 18 -14 20 -26z m-5 -104 c13 -20 0 -68
-18 -68 -11 0 -15 12 -15 46 0 46 13 55 33 22z"/>
<path d="M4061 3437 c-5 -12 -16 -67 -25 -120 -10 -54 -19 -104 -22 -112 -3
-7 -1 -16 4 -19 18 -11 42 6 42 30 0 19 5 24 25 24 20 0 25 -5 25 -24 0 -23
23 -41 39 -31 8 4 -32 246 -44 265 -11 18 -35 11 -44 -13z m33 -109 c6 -41 5
-48 -10 -48 -14 0 -16 6 -10 38 3 20 6 43 6 51 0 27 7 6 14 -41z"/>
<path d="M4157 3454 c-13 -13 -7 -24 18 -34 24 -9 24 -12 27 -122 2 -93 6
-113 18 -113 12 0 16 21 18 118 2 110 4 117 23 117 14 0 19 5 17 18 -2 13 -15
18 -58 20 -31 2 -59 0 -63 -4z"/>
<path d="M4305 3448 c-3 -8 -4 -70 -3 -139 3 -102 6 -124 18 -124 13 0 15 22
15 134 0 99 -3 135 -12 138 -7 3 -15 -2 -18 -9z"/>
<path d="M4400 3320 c0 -118 2 -140 15 -140 12 0 15 15 15 76 0 76 12 92 24
32 15 -75 27 -108 41 -108 13 0 15 24 15 140 0 118 -2 140 -15 140 -12 0 -15
-14 -15 -66 0 -72 -14 -79 -25 -11 -9 53 -22 77 -40 77 -13 0 -15 -24 -15
-140z"/>
<path d="M4595 3448 c-32 -18 -35 -28 -35 -130 0 -102 7 -119 51 -133 14 -5
31 0 48 12 22 17 26 29 29 77 l3 56 -30 0 c-35 0 -51 -19 -27 -32 30 -17 14
-87 -18 -75 -24 9 -19 190 5 195 9 2 20 -8 27 -23 14 -30 35 -29 40 2 2 13 -7
29 -24 42 -30 24 -41 25 -69 9z"/>
<path d="M3480 3079 c-45 -18 -60 -39 -60 -87 0 -51 26 -101 71 -133 63 -44
78 -134 22 -127 -19 2 -29 10 -33 28 -4 18 -13 26 -33 28 -25 3 -27 0 -27 -31
0 -46 26 -76 72 -84 72 -11 118 28 118 98 0 46 -24 89 -80 144 -52 52 -66 97
-34 109 26 10 34 7 46 -19 11 -25 51 -35 63 -15 11 17 -22 78 -47 85 -45 13
-53 13 -78 4z"/>
<path d="M3715 3076 c-47 -20 -55 -51 -55 -207 l0 -141 29 -29 c22 -21 39 -29
66 -29 27 0 44 8 66 29 l29 29 0 142 c0 179 -6 194 -90 215 -8 2 -29 -2 -45
-9z m65 -66 c6 -12 9 -69 8 -141 -3 -101 -6 -124 -20 -132 -12 -8 -21 -7 -32
2 -13 11 -16 37 -16 140 0 126 6 151 37 151 7 0 17 -9 23 -20z"/>
<path d="M3973 3075 c-17 -7 -36 -22 -42 -34 -12 -21 -16 -297 -5 -326 8 -21
56 -45 89 -45 39 0 65 18 81 55 22 54 18 84 -12 91 -32 8 -42 -2 -46 -46 -3
-30 -7 -35 -28 -35 l-25 0 -3 141 c-2 120 0 143 13 148 26 10 44 -4 47 -37 3
-34 29 -46 57 -28 12 8 13 16 3 49 -20 66 -70 92 -129 67z"/>
<path d="M4160 2880 l0 -210 30 0 30 0 0 210 0 210 -30 0 -30 0 0 -210z"/>
<path d="M4290 2880 l0 -210 85 0 c84 0 85 0 85 24 0 23 -4 25 -52 28 l-53 3
-3 62 -3 62 43 3 c39 3 43 6 46 31 3 26 2 27 -42 27 l-46 0 0 60 0 59 58 3
c53 3 57 5 57 28 0 25 -2 25 -87 28 l-88 3 0 -211z"/>
<path d="M4480 3060 c0 -27 3 -30 30 -30 l30 0 0 -180 0 -180 35 0 35 0 0 180
0 180 29 0 c21 0 32 6 36 20 11 34 -3 40 -101 40 l-94 0 0 -30z"/>
<path d="M4690 3077 c0 -7 18 -59 40 -116 37 -94 40 -110 40 -197 l0 -94 30 0
30 0 0 90 c0 80 4 101 40 196 48 128 49 136 13 132 -24 -3 -31 -11 -49 -63
-12 -32 -25 -60 -31 -62 -5 -2 -20 26 -32 62 -21 60 -26 65 -52 65 -17 0 -29
-5 -29 -13z"/>
<path d="M3422 2578 c-18 -18 -15 -113 3 -128 21 -18 45 4 45 41 0 22 -5 29
-20 29 -13 0 -20 7 -20 20 0 22 16 27 23 8 2 -7 8 -9 13 -5 9 9 -6 39 -22 44
-5 2 -15 -2 -22 -9z m28 -93 c0 -8 -4 -15 -10 -15 -5 0 -10 7 -10 15 0 8 5 15
10 15 6 0 10 -7 10 -15z"/>
<path d="M3497 2583 c-10 -10 -8 -131 2 -137 5 -3 12 4 16 17 6 17 8 19 12 6
6 -24 38 -30 62 -12 12 8 21 10 21 4 0 -6 6 -11 14 -11 11 0 12 11 1 65 -6 36
-15 68 -18 71 -11 11 -27 -7 -27 -29 0 -12 -5 -40 -11 -62 -10 -34 -13 -37
-19 -20 -4 11 -5 35 -2 52 6 45 -27 81 -51 56z m33 -38 c0 -8 -4 -15 -10 -15
-5 0 -10 7 -10 15 0 8 5 15 10 15 6 0 10 -7 10 -15z"/>
<path d="M3657 2583 c-11 -10 -8 -131 3 -138 6 -4 10 5 10 19 0 15 8 31 20 38
22 14 27 57 8 76 -13 13 -31 16 -41 5z m29 -50 c-10 -10 -19 5 -10 18 6 11 8
11 12 0 2 -7 1 -15 -2 -18z"/>
<path d="M3738 2584 c-12 -11 -10 -132 2 -139 6 -3 10 5 10 19 0 14 5 28 10
31 6 4 10 -5 10 -19 0 -14 5 -26 10 -26 6 0 10 30 10 71 0 44 -4 68 -10 64 -5
-3 -10 -20 -10 -38 0 -38 -17 -25 -22 16 -2 16 -6 25 -10 21z"/>
<path d="M3818 2584 c-12 -11 -10 -132 2 -139 6 -4 10 8 11 27 0 18 2 40 3 48
4 24 -8 72 -16 64z"/>
<path d="M3862 2578 c-17 -17 -16 -113 3 -128 17 -14 43 -7 51 15 8 21 -5 33
-15 16 -14 -22 -31 -3 -31 34 0 37 17 56 31 34 4 -7 11 -10 16 -6 10 10 -10
41 -28 45 -8 1 -20 -3 -27 -10z"/>
<path d="M3977 2583 c-4 -3 -7 -35 -7 -70 0 -67 11 -83 48 -68 16 8 16 8 0 12
-10 3 -18 12 -18 20 0 9 8 22 18 29 16 13 16 13 0 14 -23 0 -25 50 -3 50 8 0
15 5 15 10 0 11 -43 14 -53 3z"/>
<path d="M4047 2583 c-9 -8 -9 -128 0 -136 3 -4 12 -2 20 5 10 8 17 8 24 1 12
-12 49 -6 49 8 0 5 9 4 20 -3 10 -7 21 -10 24 -7 9 9 -20 133 -31 136 -12 4
-18 -11 -28 -75 -4 -23 -11 -39 -17 -36 -5 3 -7 23 -3 45 5 26 3 45 -5 54 -13
16 -42 20 -53 8z m43 -37 c0 -3 -4 -8 -10 -11 -5 -3 -10 -1 -10 4 0 6 5 11 10
11 6 0 10 -2 10 -4z"/>
<path d="M4240 2527 c0 -72 17 -100 45 -77 17 14 22 146 5 135 -5 -3 -10 -28
-10 -56 0 -27 -4 -49 -10 -49 -5 0 -10 22 -10 49 0 28 -4 53 -10 56 -6 4 -10
-18 -10 -58z"/>
<path d="M4320 2515 c0 -48 4 -74 10 -70 6 3 10 16 10 28 1 20 2 20 16 -6 22
-41 34 -24 34 48 0 68 -13 93 -25 47 l-8 -27 -6 24 c-4 14 -12 26 -19 29 -9 3
-12 -17 -12 -73z"/>
<path d="M4415 2581 c-10 -9 -5 -130 5 -136 6 -4 10 17 10 57 0 44 3 59 10 48
5 -8 10 -29 10 -46 0 -16 6 -39 14 -50 14 -18 15 -18 24 6 5 14 13 50 17 80 7
49 6 53 -8 42 -9 -8 -18 -23 -20 -35 -3 -19 -5 -18 -11 8 -5 21 -14 31 -27 31
-11 0 -22 -2 -24 -5z"/>
<path d="M4530 2514 l0 -75 43 3 c29 2 46 9 54 23 11 18 12 18 13 3 0 -10 7
-18 15 -18 11 0 12 6 6 23 -4 12 -6 38 -4 58 5 39 -15 66 -42 55 -11 -4 -15
-21 -15 -66 0 -61 -7 -71 -40 -50 -12 7 -12 11 3 28 16 17 16 20 2 25 -22 9
-19 34 5 42 26 8 16 25 -16 25 -23 0 -24 -2 -24 -76z m106 19 c-10 -10 -19 5
-10 18 6 11 8 11 12 0 2 -7 1 -15 -2 -18z"/>
<path d="M4682 2578 c-18 -18 -15 -43 8 -63 25 -22 26 -37 3 -33 -23 4 -23
-21 -1 -35 12 -8 21 -7 32 2 20 17 20 40 2 60 -20 22 -24 45 -8 47 6 1 15 2
18 3 11 2 -18 31 -30 31 -7 0 -17 -5 -24 -12z"/>
<path d="M4753 2574 c-8 -21 2 -124 12 -127 6 -1 11 25 13 61 4 79 22 82 22 3
0 -33 5 -63 10 -66 6 -4 10 14 10 48 0 68 23 96 41 51 6 -16 13 -46 16 -66 7
-45 23 -40 23 7 0 19 5 46 10 61 8 19 8 30 0 38 -7 7 -10 5 -10 -7 0 -21 -16
-22 -24 -1 -4 12 -18 14 -62 12 -31 -2 -58 -8 -61 -14z"/>
</g>
</svg>
